<?xml version="1.0" encoding="iso-8859-1"?>
<!-- Generator: Adobe Illustrator 19.0.0, SVG Export Plug-In . SVG Version: 6.00 Build 0)  -->
<svg xmlns="http://www.w3.org/2000/svg" xmlns:xlink="http://www.w3.org/1999/xlink" version="1.1" id="Layer_1" x="0px" y="0px" viewBox="0 0 501.987 501.987" style="enable-background:new 0 0 501.987 501.987;" xml:space="preserve" width="512" height="512">
<g>
	<g>
		<polygon style="fill:#FBB03B;" points="432.797,97.386 404.594,69.183 377.398,41.987 41.981,377.404 69.177,404.6 97.38,432.803     124.576,459.999 459.993,124.582   "/>
		<path style="fill:#FBB03B;" d="M487.189,19.828l-5.036-5.037c-6.397-6.397-16.77-6.397-23.167,0l-54.392,54.392l28.203,28.203    l54.392-54.392C493.587,36.597,493.587,26.225,487.189,19.828z"/>
		<path style="fill:#FBB03B;" d="M14.785,458.992c-6.397,6.397-6.397,16.77,0,23.167l5.036,5.037c6.397,6.397,16.77,6.397,23.167,0    l54.392-54.392L69.177,404.6L14.785,458.992z"/>
	</g>
	<g>
		<path d="M501.987,31.411c0-7.047-2.744-13.672-7.728-18.654l-5.035-5.037c-10.288-10.286-27.023-10.284-37.31,0l-47.32,47.321    L384.47,34.916c-3.906-3.904-10.236-3.904-14.143,0L34.91,370.333c-3.905,3.905-3.905,10.237,0,14.143l20.125,20.125    l-47.321,47.32l0,0.001c-10.285,10.285-10.285,27.022,0,37.309l5.036,5.036c5.143,5.143,11.899,7.715,18.655,7.715    s13.512-2.572,18.655-7.715l47.321-47.321l20.125,20.125c1.953,1.952,4.512,2.929,7.071,2.929s5.119-0.977,7.071-2.929    l335.417-335.417c3.905-3.905,3.905-10.237,0-14.143L446.94,97.387l47.319-47.321C499.243,45.083,501.987,38.458,501.987,31.411z     M35.917,480.124c-2.487,2.488-6.537,2.488-9.025,0l-5.036-5.035c-2.488-2.489-2.488-6.537,0-9.025l47.321-47.32l14.061,14.061    L35.917,480.124z M445.851,124.582L124.577,445.857l-68.453-68.453L377.398,56.13L445.851,124.582z M480.118,35.923l-47.32,47.321    l-14.061-14.061l47.321-47.321c2.488-2.487,6.536-2.487,9.024-0.001l5.036,5.037c0,0,0,0.001,0.001,0.001    c1.205,1.205,1.868,2.808,1.868,4.512S481.324,34.718,480.118,35.923z"/>
		<path d="M240.916,211.922l-159,159c-1.953,1.953-2.929,4.512-2.929,7.071s0.976,5.118,2.929,7.071    c1.953,1.952,4.512,2.929,7.071,2.929c2.559,0,5.119-0.977,7.071-2.929l159-159c1.953-1.953,2.929-4.512,2.929-7.071    c0.001-2.56-0.976-5.118-2.929-7.071C251.155,208.02,244.823,208.018,240.916,211.922z"/>
		<path d="M271.916,180.922l-9,9c-1.952,1.953-2.929,4.512-2.929,7.071s0.977,5.118,2.929,7.071    c1.953,1.952,4.512,2.929,7.071,2.929s5.118-0.977,7.071-2.929l9-9c1.952-1.953,2.929-4.512,2.929-7.071s-0.977-5.118-2.929-7.071    C282.152,177.018,275.822,177.018,271.916,180.922z"/>
	</g>
</g>















</svg>
